inDegrees=no
num_controls=7
num_derivatives=13
num_iterations=148
num_multipliers=7
num_parameters=0
num_slacks=7
num_states=26
objective=5.335888
objective_accelerations=0.473029
objective_balance=0.004950
objective_effort=0.399254
objective_height=4.343575
objective_ligament=0.115080
solver_duration=1268.637244
status=Solve_Succeeded
success=true
DataType=double
version=3
OpenSimVersion=4.4-2022-07-23-0e9fedc
endheader
time	/jointset/ground_pelvis/pelvis_tilt/value	/jointset/ground_pelvis/pelvis_tx/value	/jointset/ground_pelvis/pelvis_ty/value	/jointset/hip_r/hip_flexion_r/value	/jointset/hip_r/hip_adduction_r/value	/jointset/hip_r/hip_rotation_r/value	/jointset/back/lumbar_extension/value	/jointset/patellofemoral_r/patellar_flexion_r/value	/jointset/knee_r/knee_flexion_r/value	/jointset/knee_r/knee_adduction_r/value	/jointset/knee_r/knee_rotation_r/value	/jointset/ankle_r/ankle_angle_r/value	/jointset/subtalar_r/subtalar_angle_r/value	/jointset/ground_pelvis/pelvis_tilt/speed	/jointset/ground_pelvis/pelvis_tx/speed	/jointset/ground_pelvis/pelvis_ty/speed	/jointset/hip_r/hip_flexion_r/speed	/jointset/hip_r/hip_adduction_r/speed	/jointset/hip_r/hip_rotation_r/speed	/jointset/back/lumbar_extension/speed	/jointset/patellofemoral_r/patellar_flexion_r/speed	/jointset/knee_r/knee_flexion_r/speed	/jointset/knee_r/knee_adduction_r/speed	/jointset/knee_r/knee_rotation_r/speed	/jointset/ankle_r/ankle_angle_r/speed	/jointset/subtalar_r/subtalar_angle_r/speed	/forceset/tau_hip_flexion_r	/forceset/tau_hip_adduction_r	/forceset/tau_hip_rotation_r	/forceset/tau_knee_flexion_r	/forceset/tau_ankle_angle_r	/forceset/tau_subtalar_angle_r	/forceset/tau_lumbar_extension	lambda_cid13_p0	lambda_cid14_p0	lambda_cid14_p1	lambda_cid14_p2	lambda_cid14_p3	lambda_cid14_p4	lambda_cid14_p5	/jointset/ground_pelvis/pelvis_tilt/accel	/jointset/ground_pelvis/pelvis_tx/accel	/jointset/ground_pelvis/pelvis_ty/accel	/jointset/hip_r/hip_flexion_r/accel	/jointset/hip_r/hip_adduction_r/accel	/jointset/hip_r/hip_rotation_r/accel	/jointset/back/lumbar_extension/accel	/jointset/patellofemoral_r/patellar_flexion_r/accel	/jointset/knee_r/knee_flexion_r/accel	/jointset/knee_r/knee_adduction_r/accel	/jointset/knee_r/knee_rotation_r/accel	/jointset/ankle_r/ankle_angle_r/accel	/jointset/subtalar_r/subtalar_angle_r/accel	gamma_cid13_p0	gamma_cid14_p0	gamma_cid14_p1	gamma_cid14_p2	gamma_cid14_p3	gamma_cid14_p4	gamma_cid14_p5
0	0.004194167262096881	0.1257200505882532	0.9348959630506536	0.1934208783645156	-0.2086410889773455	-0.2412469466896435	-0.2903791543005566	0.2311793314021649	0.2311793314021609	0.09012261626805688	0.1611295342627936	0.08934340440958972	0.08812825666076672	0	0	0	0	0	0	0	0	0	0	0	0	0	0.1031999479265056	-0.05524614124688623	-1.3687292025368e-05	-0.2416728087895666	0.1251931981964137	-0.05107443953733282	-0.02133838189467425	-29.45421754229994	-4.490500767290131	-19.21872980621146	-0.7965102799705082	-2.492891115069242	-614.1215122486252	61.01566351068385	-1.258053745467494	-1.545503410846119	-0.7493443445257147	8.311322329595267	0.05324228553018254	1.499034101957109	-5.925111951410662	9.107334039836781	9.107334039836234	-2.56424579098378	0.5551147599325855	2.673851498033245	0.8789603098619007	2.250025718325585e-08	1.334684400925694e-08	-1.801358850326418e-07	1.402250419632281e-07	5.988427453632771e-09	1.012207157085351e-07	-1.652008939904312e-07
0.01	0.004136347672277482	0.1256439700543467	0.9348595704917029	0.1938246720199693	-0.2086373293901783	-0.2411719018999141	-0.2906763486328382	0.2316255890534618	0.2316255890534641	0.08999464358129747	0.1611544454861869	0.08947475253642827	0.08817283616356318	-0.0115265221057736	-0.01511876542682689	-0.007256508186255018	0.08037017920991382	0.0007367619443460446	0.01494989127156924	-0.05904112802277144	0.08884159060903518	0.08884159060903446	-0.02544803866168891	0.004942505062861581	0.02617738949901505	0.00887054158037668	0.09990914653247514	-0.06162283478180655	0.0001795387643976825	-0.2391939770062509	0.1207925335841664	-0.04444345883203776	-0.01820190304642374	-29.45989211990368	-5.561606123370732	-16.36898537829804	-1.430686179445052	-2.677517524288264	-615.6424444832624	66.78653233068346	-1.094343836546244	-1.480460707874942	-0.7104832709399065	7.841582637786366	0.08161706712927665	1.484135611466787	-5.833952462525162	8.711076124038078	8.711076124038327	-2.513123853237456	0.4578852487970064	2.575851211745571	0.884285512645296	2.89117965366283e-08	1.445989654200901e-09	-2.221141997622663e-07	1.35596649202244e-07	2.111387760554861e-08	-3.813713296532909e-09	-1.77287990482398e-07
0.02	0.003964384382711118	0.1254196223463171	0.9347512770078361	0.1950205108517359	-0.2086266573999159	-0.2409491244031239	-0.2915520220923129	0.2329479635213614	0.2329479635213639	0.08961658231799885	0.161227595134093	0.08986510826543989	0.08830475796826733	-0.02282873994806868	-0.02965343482460717	-0.0143801849832155	0.1584090352637184	0.001382480618397	0.02954654141153472	-0.1156958254381278	0.175223363322116	0.1752233633221153	-0.05001771530241612	0.009647684899083304	0.05180152043442535	0.01746846038154196	0.09661834513840233	-0.067999528316742	0.0003727648209043582	-0.2367151452229845	0.1163918689718923	-0.03781247812677094	-0.01506542419818458	-29.47647409715692	-6.562302792743064	-13.51900419634476	-2.051088057197172	-2.868447294673167	-616.0601090481971	72.34895293344738	-1.213192892771715	-1.428684205036842	-0.7227780666668058	7.84505769837342	0.03503363147115861	1.428385875636361	-5.447825829927599	8.615370460645945	8.615370460645535	-2.388573386791438	0.507649714604622	2.563199785312257	0.8244357540196003	3.532333589000073e-08	-1.045486470085514e-08	-2.640925144918909e-07	1.309682564412599e-07	3.623932775746445e-08	-1.088481423016009e-07	-1.893750869743647e-07
0.03	0.00368031905783287	0.1250526899199071	0.9345721763720963	0.1969856358254419	-0.2086101099656681	-0.2405825440274861	-0.2929822827577266	0.235122118864371	0.2351221188643624	0.08899743379114128	0.1613469284926179	0.09050877167536128	0.0885211189104108	-0.0339348332799724	-0.04365078413597155	-0.02143532161339761	0.2342419806614043	0.001916436831452718	0.04369361581530664	-0.1699905331838621	0.2592077039243084	0.259207703924305	-0.0736745291681235	0.01417645724739856	0.07682396097297492	0.02576206756443316	0.09247458960157352	-0.0639535797906501	0.0005043740709296603	-0.2333908991853797	0.1127804182125942	-0.038704132573548	-0.0114481885295447	-29.5032865013857	-7.789979720451983	-14.08569669185028	-2.001303362297477	-2.58286498608761	-616.6027140600253	70.47761442056675	-1.051890808213166	-1.372913037095945	-0.6962105724971411	7.396316796852858	0.06098056010438976	1.396510346984267	-5.365427077658642	8.229958566411804	8.229958566411749	-2.333644509148883	0.4191389958872274	2.455690960423377	0.8255485047364806	3.590717148042222e-08	-2.042987768908661e-08	-2.629610522246584e-07	8.756605283576591e-08	4.493136337671289e-08	-2.006171727011651e-07	-1.542032440267025e-07
0.04	0.003286678148665774	0.1245482534518015	0.9343226585477938	0.1996978710203982	-0.2085885421805137	-0.2400767644829644	-0.2949445172667524	0.238124116154669	0.2381241161546714	0.08814583530108895	0.1615102791748422	0.09139944444512706	0.0888191609852457	-0.04474385680439249	-0.05715424316373148	-0.0284636226957789	0.3078310795145636	0.002386550799768096	0.05738637518854288	-0.2220905941600824	0.3407917527827384	0.3407917527827355	-0.0965077079413727	0.01845114963340068	0.1012033924034066	0.03380468691982877	0.08833083406474988	-0.05990763126454348	0.0006359833211082949	-0.2300666531477813	0.1091689674532983	-0.03959578702030863	-0.007830952860904747	-29.53929071514318	-8.953064143683507	-14.6535412564763	-1.937100259037482	-2.311173582274718	-616.1329425567168	68.41768451613163	-1.153778931274917	-1.329906148315987	-0.7174109571066406	7.396288389468126	0.02226518252308689	1.337522869529229	-5.008896476024733	8.135312111893516	8.135312111893736	-2.2238463682998	0.4568337221419991	2.434597963688654	0.7742381885204666	3.637084823037048e-08	-3.036518260789903e-08	-2.609407285760473e-07	4.336438921285929e-08	5.34907512736383e-08	-2.9211268972742e-07	-1.180569899565737e-07
